<?xml version="1.0" encoding="utf-8"?><!--Generator: Adobe Illustrator 24.0.1, SVG Export Plug-In . SVG Version: 6.00 Build 0)--><svg version="1.1" id="圖層_1" xmlns="http://www.w3.org/2000/svg" xmlns:xlink="http://www.w3.org/1999/xlink" x="0px" y="0px" viewBox="0 0 100 100" enable-background="new 0 0 100 100" xml:space="preserve"><g><ellipse fill="#ABBC80" stroke="#000000" stroke-width="3" stroke-linecap="round" stroke-linejoin="round" stroke-miterlimit="10" cx="65.87" cy="36.47" rx="13.53" ry="2.33"/><ellipse transform="matrix(0.1949 -0.9808 0.9808 0.1949 41.1874 98.8423)" fill="#ABBC80" stroke="#000000" stroke-width="3" stroke-linecap="round" stroke-linejoin="round" stroke-miterlimit="10" cx="80.8" cy="24.33" rx="13.53" ry="2.33"/><path fill="none" stroke="#000000" stroke-width="3" stroke-linecap="round" stroke-linejoin="round" stroke-miterlimit="10" d=" M83.13,10.8c0.93,0,8.4,4.67,8.4,4.67s0.93,5.6,0.93,6.53"/></g><g><ellipse fill="#ABBC80" stroke="#000000" stroke-width="3" stroke-linecap="round" stroke-linejoin="round" stroke-miterlimit="10" cx="34.13" cy="36.47" rx="13.53" ry="2.33"/><ellipse transform="matrix(0.9808 -0.1949 0.1949 0.9808 -4.3738 4.2081)" fill="#ABBC80" stroke="#000000" stroke-width="3" stroke-linecap="round" stroke-linejoin="round" stroke-miterlimit="10" cx="19.2" cy="24.33" rx="2.33" ry="13.53"/><path fill="none" stroke="#000000" stroke-width="3" stroke-linecap="round" stroke-linejoin="round" stroke-miterlimit="10" d=" M16.87,10.8c-0.93,0-8.4,4.67-8.4,4.67S7.53,21.07,7.53,22"/></g><path fill="#D7E2BB" stroke="#000000" stroke-width="3" stroke-linecap="round" stroke-linejoin="round" stroke-miterlimit="10" d=" M55.6,32.06c0-5.04-2.51-9.13-5.6-9.13s-5.6,4.09-5.6,9.13c0,1.89,0.35,3.65,0.96,5.1c-0.6,1.46-0.96,3.21-0.96,5.1 c0,5.04,2.51,9.13,5.6,9.13s5.6-4.09,5.6-9.13c0-1.89-0.35-3.65-0.96-5.1C55.25,35.71,55.6,33.95,55.6,32.06z"/><g><ellipse fill="#ABBC80" stroke="#000000" stroke-width="3" stroke-linecap="round" stroke-linejoin="round" stroke-miterlimit="10" cx="49.25" cy="21.33" rx="11.25" ry="5.81"/><ellipse fill="#839A86" stroke="#000000" stroke-width="3" stroke-linecap="round" stroke-linejoin="round" stroke-miterlimit="10" cx="40.62" cy="20.3" rx="4.88" ry="4.78"/><ellipse fill="#839A86" stroke="#000000" stroke-width="3" stroke-linecap="round" stroke-linejoin="round" stroke-miterlimit="10" cx="59.38" cy="20.3" rx="4.88" ry="4.78"/><path fill="#839A86" stroke="#000000" stroke-width="3" stroke-linecap="round" stroke-linejoin="round" stroke-miterlimit="10" d=" M52.86,15.74C53.14,14.83,61.4,8,61.4,8"/><path fill="#839A86" stroke="#000000" stroke-width="3" stroke-linecap="round" stroke-linejoin="round" stroke-miterlimit="10" d=" M46.39,15.74C46.1,14.83,37.85,8,37.85,8"/></g><polyline fill="none" stroke="#000000" stroke-width="3" stroke-linecap="round" stroke-linejoin="round" stroke-miterlimit="10" points=" 54.32,52.28 67.43,47.67 79.98,58.54 84.16,55.19 "/><polyline fill="none" stroke="#000000" stroke-width="3" stroke-linecap="round" stroke-linejoin="round" stroke-miterlimit="10" points=" 56.56,63.56 70.78,68.58 74.96,88.65 79.98,92 "/><polyline fill="none" stroke="#000000" stroke-width="3" stroke-linecap="round" stroke-linejoin="round" stroke-miterlimit="10" points=" 45.68,52.28 32.57,47.67 20.02,58.54 15.84,55.19 "/><polyline fill="none" stroke="#000000" stroke-width="3" stroke-linecap="round" stroke-linejoin="round" stroke-miterlimit="10" points=" 43.44,63.56 29.22,68.58 25.04,88.65 20.02,92 "/><ellipse fill="#ABBC80" stroke="#000000" stroke-width="3" stroke-linecap="round" stroke-linejoin="round" stroke-miterlimit="10" cx="50" cy="66.33" rx="7" ry="22.87"/><metadata xmlns:d="https://loading.io/stock/">
<d:name>insect</d:name>
<d:tags>insect,bug,animal,biology,mantis,mantodea</d:tags>
<d:license>by</d:license>
<d:slug>rzqm2z</d:slug>
</metadata></svg>