<?xml version="1.0" encoding="utf-8"?><!--Generator: Adobe Illustrator 24.0.1, SVG Export Plug-In . SVG Version: 6.00 Build 0)--><svg version="1.1" id="圖層_1" xmlns="http://www.w3.org/2000/svg" xmlns:xlink="http://www.w3.org/1999/xlink" x="0px" y="0px" viewBox="0 0 100 100" enable-background="new 0 0 100 100" xml:space="preserve"><polyline fill="none" stroke="#000000" stroke-width="3" stroke-linecap="round" stroke-linejoin="round" stroke-miterlimit="10" points=" 63.48,40.59 74.55,35.13 71.66,26.47 75.51,24.54 "/><polyline fill="none" stroke="#000000" stroke-width="3" stroke-linecap="round" stroke-linejoin="round" stroke-miterlimit="10" points=" 68.29,56.28 75.51,52.46 83.21,67.86 87.06,66.9 "/><polyline fill="none" stroke="#000000" stroke-width="3" stroke-linecap="round" stroke-linejoin="round" stroke-miterlimit="10" points=" 66.9,71.47 75.51,66.9 78.4,86.15 88.02,90 "/><polyline fill="none" stroke="#000000" stroke-width="3" stroke-linecap="round" stroke-linejoin="round" stroke-miterlimit="10" points=" 37.01,40.59 25.94,35.13 28.82,26.47 24.97,24.54 "/><polyline fill="none" stroke="#000000" stroke-width="3" stroke-linecap="round" stroke-linejoin="round" stroke-miterlimit="10" points=" 32.19,56.28 24.97,52.46 17.27,67.86 13.42,66.9 "/><polyline fill="none" stroke="#000000" stroke-width="3" stroke-linecap="round" stroke-linejoin="round" stroke-miterlimit="10" points=" 33.58,71.47 24.97,66.9 22.09,86.15 12.46,90 "/><ellipse fill="#66503A" stroke="#000000" stroke-width="3" stroke-linecap="round" stroke-linejoin="round" stroke-miterlimit="10" cx="50" cy="59.78" rx="18.29" ry="28.4"/><g><g><path fill="none" stroke="#000000" stroke-width="3" stroke-linecap="round" stroke-linejoin="round" stroke-miterlimit="10" d=" M51.73,18.14c0.47-2.65,2.24-5.1,4.77-6.57c2.52-1.47,5.76-1.94,8.68-1.27c2.22,0.51,4.21,1.64,5.91,3 c4.3,3.42,6.9,8.24,8.6,13.14c2.35,6.79,3.15,13.9,4.46,20.9c1.31,7,3.2,14.08,7.43,20.1"/></g><g><path fill="none" stroke="#000000" stroke-width="3" stroke-linecap="round" stroke-linejoin="round" stroke-miterlimit="10" d=" M48.27,18.14c-0.47-2.65-2.24-5.1-4.77-6.57c-2.52-1.47-5.76-1.94-8.68-1.27c-2.22,0.51-4.21,1.64-5.91,3 c-4.3,3.42-6.9,8.24-8.6,13.14c-2.35,6.79-3.15,13.9-4.46,20.9s-3.2,14.08-7.43,20.1"/></g><ellipse fill="#988572" stroke="#000000" stroke-width="3" stroke-linecap="round" stroke-linejoin="round" stroke-miterlimit="10" cx="50.48" cy="26.58" rx="10.59" ry="8.66"/></g><path fill="#603813" stroke="#000000" stroke-width="3" stroke-linecap="round" stroke-linejoin="round" stroke-miterlimit="10" d=" M31.71,59.78c0,15.68,8.19,28.4,18.29,28.4V31.39C39.9,31.39,31.71,44.1,31.71,59.78z"/><path fill="#603813" stroke="#000000" stroke-width="3" stroke-linecap="round" stroke-linejoin="round" stroke-miterlimit="10" d=" M68.29,59.78c0-15.68-8.19-28.4-18.29-28.4v56.79C60.1,88.18,68.29,75.47,68.29,59.78z"/><path fill="#754C24" stroke="#000000" stroke-width="3" stroke-linecap="round" stroke-linejoin="round" stroke-miterlimit="10" d=" M63.48,36.74c-1.52,0.74-6.03,2.74-12.56,2.82c-7.06,0.09-11.96-2.11-13.43-2.82c0-2.16,0-4.32,0-6.48c0-2.04,2.53-3.69,5.66-3.69 h14.67c3.13,0,5.66,1.65,5.66,3.69V36.74z"/><metadata xmlns:d="https://loading.io/stock/">
<d:name>insect</d:name>
<d:tags>insect,cockroach,bug,animal,biology,beetle,blattodea</d:tags>
<d:license>by</d:license>
<d:slug>7egpvd</d:slug>
</metadata></svg>